<svg width="236" height="175" viewBox="0 0 236 175" fill="none" xmlns="http://www.w3.org/2000/svg">
<path d="M5.38912 171.341C4.49472 160.688 4.14743 150.001 3.32504 139.349C3.15751 137.158 0.934144 130.385 1.88111 128.793C3.21014 126.562 10.8072 128.605 12.5878 129.032C21.7183 131.222 30.518 134.213 39.39 137.214C40.4208 137.563 46.8826 139.07 47.0899 140.019C47.8788 143.625 41.2738 147.596 39.2277 149.383C30.2954 157.184 18.2702 168.117 7.52215 173.491M23.6739 132.28C29.1853 99.0774 50.2597 54.7278 80.9015 36.5117C86.1614 33.3846 95.3148 30.4831 104.809 29.4254M104.809 29.4254C120.405 27.6877 136.92 30.9261 138.6 46.3147C141.559 73.4388 98.0196 64.5545 101.641 39.8184C102.192 36.0537 103.28 32.5922 104.809 29.4254ZM104.809 29.4254C112.16 14.1941 129.689 5.77644 146.567 3.18941C182.597 -2.33229 214.441 8.84408 239.999 33.831" stroke="#F2751A" stroke-width="2" stroke-miterlimit="1.5" stroke-linecap="round" stroke-linejoin="round"/>
</svg>