<svg width="632" height="315" viewBox="0 0 632 315" fill="none" xmlns="http://www.w3.org/2000/svg">
<path fill-rule="evenodd" clip-rule="evenodd" d="M262.056 26.8849C325.975 9.58371 390.431 1.74185 446.252 3.7377C502.082 5.73385 549.114 17.5583 578.483 39.4875C589.871 47.9906 597.955 57.5258 602.91 67.8193L605.251 67.6054C600.204 57.1221 591.959 47.3876 580.321 38.6979C550.272 16.2613 502.356 4.31907 446.074 2.30673C389.782 0.294069 324.961 8.20193 260.803 25.5678L262.056 26.8849ZM590.985 145.376C584.034 155.776 575.12 166.262 564.352 176.663L566.481 177.522C577.304 167.068 586.273 156.519 593.272 146.049L590.985 145.376ZM475.709 238.054C463.399 244.462 450.323 250.66 436.515 256.593C360.539 289.238 276.882 307.633 203.089 311.012C129.249 314.392 65.5848 302.738 29.1419 275.527C16.6531 266.202 8.13793 255.634 3.36469 244.186L0.999994 244.347C5.85831 255.999 14.5404 266.786 27.3044 276.316C64.5936 304.159 129.374 315.839 203.597 312.441C277.867 309.041 361.89 290.543 438.118 257.79C451.975 251.836 465.101 245.614 477.457 239.182L475.709 238.054ZM607.852 78.2045H598.441V93.0842L599.464 97.2079L596.609 93.0842L586.641 83.1359L580.081 89.6804L590.776 100.353L594.096 102.35L590.772 101.67H575.142V110.726H590.172L594.093 109.917L590.772 111.999L580.081 122.667L586.641 129.232L597.375 118.519L599.464 115.246L598.441 118.519V134.204H607.852V118.519L606.871 115.246L609.045 118.519L619.775 129.213L626.336 122.667L615.645 111.999L612.195 109.917L615.645 110.726H631.142V101.67H615.645L612.195 102.35L615.645 100.353L626.339 89.6771L619.779 83.1315L609.045 93.9697L606.871 97.2036L607.852 93.0809V78.2045Z" fill="#F2751A"/>
</svg>