<svg width="43" height="32" viewBox="0 0 43 32" fill="none" xmlns="http://www.w3.org/2000/svg">
<path d="M13.1317 9.68766L13.1261 9.69827L13.1209 9.70905C12.0156 11.9803 11.3749 14.3431 11.2042 16.7926L11.1541 17.5116L11.8634 17.6392L17.9401 18.7324V31.1966H0.803445V22.0606C0.803445 16.4475 2.12077 12.0318 4.67687 8.73579C7.22882 5.46858 10.6104 2.89467 14.8456 1.02246L16.5653 4.06717C15.3468 5.77016 14.2026 7.64418 13.1317 9.68766ZM37.3881 9.68766L37.3825 9.69827L37.3773 9.70905C36.272 11.9803 35.6314 14.3431 35.4606 16.7926L35.4105 17.5116L36.1199 17.6392L42.1966 18.7324V31.1966H25.0599V22.0606C25.0599 16.4477 26.3771 12.0321 28.933 8.73618C31.485 5.46879 34.8667 2.89474 39.102 1.02246L40.8217 4.06717C39.6032 5.77016 38.459 7.64418 37.3881 9.68766Z" stroke="#F2751A" stroke-width="1.60689"/>
</svg>