<svg width="45" height="27" viewBox="0 0 45 27" fill="none" xmlns="http://www.w3.org/2000/svg">
<path d="M12.5251 9.6525C12.5251 10.1994 12.5842 10.6429 12.6877 10.9681C12.806 11.2933 12.9538 11.648 13.1607 12.0324C13.2346 12.1506 13.2642 12.2689 13.2642 12.3723C13.2642 12.5202 13.1755 12.668 12.9833 12.8158L12.0521 13.4366C11.9191 13.5253 11.786 13.5697 11.6678 13.5697C11.5199 13.5697 11.3721 13.4958 11.2243 13.3627C11.0174 13.141 10.84 12.9045 10.6922 12.668C10.5444 12.4167 10.3965 12.1358 10.2339 11.7959C9.08096 13.1558 7.63234 13.8357 5.8881 13.8357C4.64643 13.8357 3.65605 13.481 2.93174 12.7715C2.20743 12.0619 1.83789 11.1159 1.83789 9.93335C1.83789 8.6769 2.28134 7.65696 3.18303 6.88831C4.08472 6.11965 5.28204 5.73533 6.80456 5.73533C7.30714 5.73533 7.82451 5.77967 8.37143 5.85358C8.91836 5.92749 9.48007 6.04575 10.0713 6.17878V5.09971C10.0713 3.9763 9.83483 3.19286 9.37659 2.73463C8.90358 2.27639 8.10536 2.05467 6.96716 2.05467C6.4498 2.05467 5.91766 2.11379 5.37073 2.24683C4.82381 2.37987 4.29166 2.54246 3.7743 2.74941C3.53779 2.85288 3.36041 2.91201 3.25694 2.94157C3.15347 2.97114 3.07956 2.98592 3.02043 2.98592C2.81349 2.98592 2.71001 2.8381 2.71001 2.52768V1.80338C2.71001 1.56687 2.73958 1.38949 2.81349 1.28601C2.8874 1.18254 3.02043 1.07907 3.22738 0.975597C3.74474 0.709525 4.36557 0.487799 5.08988 0.310417C5.81419 0.118254 6.58284 0.0295635 7.39584 0.0295635C9.15487 0.0295635 10.4409 0.428671 11.2687 1.22689C12.0817 2.0251 12.4955 3.23721 12.4955 4.8632V9.6525H12.5251ZM6.52371 11.8993C7.01151 11.8993 7.51409 11.8106 8.04623 11.6333C8.57838 11.4559 9.05139 11.1307 9.4505 10.6872C9.68701 10.4064 9.86439 10.096 9.95308 9.74119C10.0418 9.38643 10.1009 8.95776 10.1009 8.45517V7.83434C9.67223 7.73087 9.21399 7.64218 8.74098 7.58305C8.26796 7.52392 7.80973 7.49436 7.35149 7.49436C6.36111 7.49436 5.63681 7.68652 5.14901 8.08563C4.66121 8.48474 4.4247 9.04645 4.4247 9.78553C4.4247 10.4803 4.60208 10.9976 4.97163 11.3524C5.32639 11.7219 5.84375 11.8993 6.52371 11.8993ZM18.3935 13.4958C18.1274 13.4958 17.95 13.4514 17.8318 13.3479C17.7135 13.2593 17.61 13.0523 17.5213 12.7715L14.0476 1.34514C13.9589 1.04951 13.9146 0.857343 13.9146 0.75387C13.9146 0.517362 14.0328 0.384326 14.2694 0.384326H15.718C15.9988 0.384326 16.191 0.428671 16.2945 0.532144C16.4127 0.620834 16.5014 0.827779 16.5901 1.10863L19.0734 10.8942L21.3794 1.10863C21.4533 0.812998 21.542 0.620834 21.6602 0.532144C21.7785 0.443453 21.9854 0.384326 22.2515 0.384326H23.4341C23.7149 0.384326 23.9071 0.428671 24.0253 0.532144C24.1436 0.620834 24.2471 0.827779 24.3062 1.10863L26.6417 11.0124L29.1989 1.10863C29.2876 0.812998 29.3911 0.620834 29.4946 0.532144C29.6128 0.443453 29.805 0.384326 30.0711 0.384326H31.4458C31.6823 0.384326 31.8153 0.50258 31.8153 0.75387C31.8153 0.827779 31.8005 0.901688 31.7858 0.990379C31.771 1.07907 31.7414 1.19732 31.6823 1.35992L28.1199 12.7862C28.0312 13.0819 27.9277 13.274 27.8095 13.3627C27.6912 13.4514 27.499 13.5105 27.2477 13.5105H25.9765C25.6957 13.5105 25.5035 13.4662 25.3852 13.3627C25.267 13.2593 25.1635 13.0671 25.1044 12.7715L22.8132 3.23721L20.5368 12.7567C20.4629 13.0523 20.3742 13.2445 20.256 13.3479C20.1377 13.4514 19.9308 13.4958 19.6647 13.4958H18.3935ZM37.388 13.8949C36.6194 13.8949 35.8507 13.8062 35.1116 13.6288C34.3726 13.4514 33.7961 13.2593 33.4117 13.0375C33.1752 12.9045 33.0126 12.7567 32.9535 12.6236C32.8944 12.4906 32.8648 12.3428 32.8648 12.2097V11.4559C32.8648 11.1455 32.9831 10.9976 33.2048 10.9976C33.2935 10.9976 33.3822 11.0124 33.4709 11.042C33.5596 11.0715 33.6926 11.1307 33.8404 11.1898C34.343 11.4115 34.8899 11.5889 35.4664 11.7072C36.0577 11.8254 36.6342 11.8845 37.2254 11.8845C38.1567 11.8845 38.881 11.7219 39.3836 11.3967C39.8862 11.0715 40.1522 10.5985 40.1522 9.99248C40.1522 9.57859 40.0192 9.23861 39.7531 8.95776C39.4871 8.6769 38.9845 8.42561 38.2602 8.1891L36.1168 7.52392C35.0377 7.18394 34.2395 6.68136 33.7517 6.01618C33.2639 5.36578 33.0126 4.64148 33.0126 3.87282C33.0126 3.25199 33.1457 2.70506 33.4117 2.23205C33.6778 1.75903 34.0326 1.34514 34.476 1.01994C34.9195 0.679962 35.4221 0.428671 36.0133 0.25129C36.6046 0.0739089 37.2254 0 37.8758 0C38.201 0 38.541 0.0147818 38.8662 0.0591271C39.2062 0.103472 39.5166 0.162599 39.827 0.221727C40.1227 0.295635 40.4035 0.369544 40.6696 0.458235C40.9357 0.546926 41.1426 0.635616 41.2904 0.724307C41.4974 0.842561 41.6452 0.960815 41.7339 1.09385C41.8226 1.21211 41.8669 1.3747 41.8669 1.58165V2.27639C41.8669 2.58681 41.7487 2.74941 41.5269 2.74941C41.4087 2.74941 41.2165 2.69028 40.9652 2.57203C40.1227 2.1877 39.1766 1.99554 38.1271 1.99554C37.2846 1.99554 36.6194 2.12858 36.1612 2.40943C35.7029 2.69028 35.4664 3.11895 35.4664 3.72501C35.4664 4.1389 35.6142 4.49366 35.9099 4.77451C36.2055 5.05537 36.7524 5.33622 37.5359 5.58751L39.6349 6.25269C40.6992 6.59267 41.4678 7.06569 41.926 7.67174C42.3843 8.27779 42.606 8.97254 42.606 9.74119C42.606 10.3768 42.473 10.9533 42.2217 11.4559C41.9556 11.9585 41.6008 12.4019 41.1426 12.7567C40.6844 13.1262 40.1375 13.3923 39.5018 13.5844C38.8367 13.7914 38.1419 13.8949 37.388 13.8949Z" fill="#252525"/>
<path fill-rule="evenodd" clip-rule="evenodd" d="M40.1815 21.0792C35.3183 24.6712 28.2527 26.578 22.1774 26.578C13.6631 26.578 5.99134 23.4295 0.196895 18.1967C-0.261339 17.7828 0.15255 17.2211 0.699475 17.5463C6.96694 21.1827 14.6978 23.3851 22.6947 23.3851C28.0901 23.3851 34.0176 22.2617 39.472 19.9558C40.285 19.5862 40.9798 20.4879 40.1815 21.0792Z" fill="#F68B25"/>
<path fill-rule="evenodd" clip-rule="evenodd" d="M42.2068 18.773C41.5859 17.9748 38.0975 18.3886 36.5158 18.5808C36.0428 18.6399 35.9689 18.226 36.3976 17.9156C39.1765 15.9644 43.7441 16.5261 44.2762 17.1765C44.8083 17.8417 44.1284 22.4093 41.5268 24.597C41.1277 24.937 40.7434 24.7596 40.9208 24.3161C41.512 22.8527 42.8276 19.5564 42.2068 18.773Z" fill="#F68B25"/>
</svg>