<svg width="45" height="32" viewBox="0 0 45 32" fill="none" xmlns="http://www.w3.org/2000/svg">
<path d="M44.0062 12.0392C43.8857 11.9434 42.7604 11.0938 40.3873 11.0938C39.7607 11.0965 39.1354 11.1503 38.5175 11.2545C38.0583 8.10644 35.4556 6.57159 35.3389 6.50273L34.7016 6.13525L34.2825 6.74003C33.7577 7.55242 33.3745 8.44798 33.1496 9.38863C32.7247 11.1857 32.9831 12.8735 33.896 14.3165C32.7936 14.9308 31.0254 15.082 30.6675 15.0954H1.39123C0.626543 15.0964 0.00603445 15.7144 0.00186705 16.479C-0.0322808 19.0438 0.402249 21.5932 1.28406 24.0019C2.29257 26.6467 3.79296 28.5948 5.74499 29.7871C7.93238 31.1267 11.4862 31.8922 15.5146 31.8922C17.3344 31.8979 19.1509 31.7332 20.94 31.4004C23.4272 30.9437 25.8204 30.0744 28.0208 28.8283C29.8339 27.7783 31.4657 26.4427 32.853 24.8726C35.1725 22.2469 36.5543 19.3227 37.5819 16.724H37.9914C40.5309 16.724 42.0926 15.7077 42.9537 14.8561C43.526 14.313 43.9728 13.6514 44.2627 12.9176L44.4445 12.3856L44.0062 12.0392Z" fill="#218BEA"/>
<path d="M4.10474 14.2382H8.02789C8.2171 14.2382 8.37043 14.0848 8.37043 13.8956V10.4011C8.37148 10.2119 8.21897 10.0577 8.02982 10.0566C8.0292 10.0566 8.02851 10.0566 8.02789 10.0566H4.10474C3.91553 10.0566 3.76221 10.21 3.76221 10.3992V10.4011V13.8956C3.76221 14.0848 3.91553 14.2382 4.10474 14.2382Z" fill="#218BEA"/>
<path d="M9.51103 14.2382H13.4342C13.6234 14.2382 13.7767 14.0848 13.7767 13.8956V10.4011C13.7778 10.2119 13.6253 10.0577 13.436 10.0566C13.4354 10.0566 13.4347 10.0566 13.4341 10.0566H9.51097C9.3207 10.0566 9.1665 10.2108 9.1665 10.4011V13.8956C9.16762 14.0851 9.32151 14.2382 9.51103 14.2382Z" fill="#218BEA"/>
<path d="M14.9993 14.2382H18.9225C19.1117 14.2382 19.265 14.0848 19.265 13.8956V10.4011C19.2661 10.2119 19.1136 10.0577 18.9244 10.0566C18.9237 10.0566 18.923 10.0566 18.9224 10.0566H14.9993C14.8101 10.0566 14.6567 10.21 14.6567 10.3992V10.4011V13.8956C14.6568 14.0848 14.8102 14.2382 14.9993 14.2382Z" fill="#218BEA"/>
<path d="M20.4231 14.2382H24.3462C24.5358 14.2382 24.6897 14.0852 24.6907 13.8956V10.4011C24.6907 10.2108 24.5365 10.0566 24.3462 10.0566H20.4231C20.2339 10.0566 20.0806 10.21 20.0806 10.3992V10.4011V13.8956C20.0806 14.0848 20.234 14.2382 20.4231 14.2382Z" fill="#218BEA"/>
<path d="M9.51097 9.21076H13.4341C13.6236 9.2097 13.7767 9.05576 13.7767 8.8663V5.37183C13.7767 5.18262 13.6233 5.0293 13.4341 5.0293H9.51097C9.32151 5.0293 9.16756 5.18231 9.1665 5.37183V8.8663C9.16756 9.05613 9.32113 9.2097 9.51097 9.21076Z" fill="#218BEA"/>
<path d="M14.9993 9.21076H18.9224C19.1119 9.2097 19.265 9.05576 19.265 8.8663V5.37183C19.265 5.18262 19.1116 5.0293 18.9224 5.0293H14.9993C14.8101 5.0293 14.6567 5.18268 14.6567 5.37183V8.8663C14.6567 9.05576 14.8098 9.2097 14.9993 9.21076Z" fill="#218BEA"/>
<path d="M20.4231 9.21076H24.3462C24.5361 9.2097 24.6897 9.05613 24.6907 8.8663V5.37183C24.6897 5.18231 24.5358 5.0293 24.3462 5.0293H20.4231C20.2339 5.0293 20.0806 5.18268 20.0806 5.37183V8.8663C20.0806 9.05576 20.2336 9.2097 20.4231 9.21076Z" fill="#218BEA"/>
<path d="M20.4231 4.18153H24.3462C24.5358 4.18153 24.6897 4.02845 24.6907 3.83899V0.342536C24.6897 0.153012 24.5358 0 24.3462 0H20.4231C20.2339 0 20.0806 0.153323 20.0806 0.342536V3.83893C20.0806 4.02814 20.234 4.18153 20.4231 4.18153Z" fill="#218BEA"/>
<path d="M25.8948 14.2382H29.8179C30.0075 14.2382 30.1613 14.0852 30.1624 13.8956V10.4011C30.1624 10.2108 30.0082 10.0566 29.8179 10.0566H25.8948C25.7056 10.0566 25.5522 10.21 25.5522 10.3992V10.4011V13.8956C25.5522 14.0848 25.7056 14.2382 25.8948 14.2382Z" fill="#218BEA"/>
</svg>