<svg fill="none" height="24" viewBox="0 0 24 24" width="24" xmlns="http://www.w3.org/2000/svg"><path d="m12 1c-6.05688 0-11 4.94355-11 11 0 6.0569 4.94355 11 11 11 6.0569 0 11-4.9436 11-11 0-6.05688-4.9436-11-11-11zm7.4611 4.79145c1.3733 1.64742 2.2116 3.75503 2.2477 6.05385-1.7213-.4026-3.633-.4297-5.5799-.0748-.5066.0924-1.0132.2097-1.5168.3507-.1676-.4559-.3455-.908-.5346-1.3557-.1929-.4567-.3966-.90577-.6097-1.34835 2.3199-.88602 4.8336-2.20516 5.9933-3.6257zm-7.4611-3.50239c2.5274 0 4.8318.97067 6.5613 2.55836-.6746.91996-2.597 2.2593-5.6813 3.4143-1.0768-2.00492-2.368-3.84742-3.85988-5.5043.93929-.30379 1.94088-.46836 2.97988-.46836zm-4.25605.98399c1.52152 1.6298 2.83035 3.44996 3.90845 5.41621-3.20892 1.03855-6.45779 1.46224-9.12916 1.18851.65055-2.90683 2.60778-5.32554 5.22071-6.60472zm-5.45489 8.72695c0-.2853.01332-.5676.03739-.8465.58953.0623 1.20441.0937 1.83992.0937 2.50636 0 5.32211-.4821 8.08713-1.39779.422.86369.8014 1.75229 1.1361 2.66279-1.0781.3876-2.1274.8804-3.1126 1.4669-2.41575 1.4382-4.18305 3.2884-4.9161 5.1009-1.88934-1.7729-3.07184-4.2909-3.07184-7.08zm9.71094 9.7109c-2.07496 0-3.99996-.6544-5.57992-1.7677.48984-1.6552 2.14672-3.4457 4.51642-4.8563.8349-.4976 1.8112-.9664 2.8738-1.3475.7532 2.3676 1.2147 4.8666 1.3612 7.4392-.9943.3446-2.0612.5323-3.1715.5323zm4.4288-1.0699c-.1788-2.5059-.6454-4.9457-1.3943-7.2892 2.0882-.5741 4.4077-.7666 6.6073-.1959-.3893 3.266-2.4054 6.0401-5.213 7.4851z" fill="#fffefd"/></svg>