<svg width="33" height="45" viewBox="0 0 33 45" fill="none" xmlns="http://www.w3.org/2000/svg">
<path d="M10.5568 34.3713C10.5568 34.3713 8.85843 35.359 11.7655 35.6932C15.2874 36.0949 17.0873 36.0374 20.9685 35.3027C20.9685 35.3027 21.9889 35.9425 23.4138 36.4968C14.7135 40.2256 3.72296 36.2807 10.5568 34.3713ZM9.49361 29.5054C9.49361 29.5054 7.58872 30.9155 10.498 31.2163C14.2601 31.6044 17.2312 31.6362 22.3723 30.6463C22.3723 30.6463 23.0834 31.3671 24.2015 31.7614C13.6821 34.8374 1.96542 32.004 9.49361 29.5054Z" fill="#003077"/>
<path d="M18.4566 21.2511C20.6004 23.7193 17.8933 25.9403 17.8933 25.9403C17.8933 25.9403 23.3367 23.1303 20.8368 19.6113C18.502 16.3299 16.7114 14.6993 26.4046 9.07764C26.4046 9.07764 11.1895 12.8776 18.4566 21.251" fill="#DF4529"/>
<path d="M29.9633 37.9704C29.9633 37.9704 31.2202 39.0059 28.5791 39.8071C23.5571 41.3285 7.67696 41.7879 3.26547 39.8677C1.67972 39.1779 4.65357 38.2205 5.58896 38.0195C6.5645 37.808 7.12208 37.8475 7.12208 37.8475C5.35849 36.605 -4.27699 40.2869 2.22778 41.3412C19.967 44.2181 34.5646 40.0459 29.9633 37.9704ZM11.3734 24.4636C11.3734 24.4636 3.29584 26.3822 8.51301 27.0788C10.7158 27.3737 15.1071 27.3071 19.1975 26.9643C22.5404 26.6824 25.8971 26.0828 25.8971 26.0828C25.8971 26.0828 24.7184 26.5876 23.8656 27.1699C15.6629 29.3273 -0.183346 28.3237 4.37857 26.1169C8.2366 24.252 11.3735 24.4636 11.3735 24.4636H11.3734ZM25.8638 32.5631C34.2024 28.2301 30.3469 24.0662 27.6559 24.6272C26.9963 24.7644 26.7023 24.8833 26.7023 24.8833C26.7023 24.8833 26.9471 24.4998 27.4148 24.3338C32.7384 22.4622 36.8327 29.854 25.6962 32.7815C25.6962 32.7816 25.8253 32.6663 25.8638 32.5631Z" fill="#003077"/>
<path d="M20.8367 0.000128681C20.8367 0.000128681 25.4548 4.61983 16.4568 11.7232C9.24141 17.4215 14.8114 20.6705 16.4538 24.3826C12.242 20.5826 9.15107 17.2374 11.2248 14.1241C14.2683 9.55364 22.6999 7.33786 20.8367 0" fill="#DF4529"/>
<path d="M12.1926 44.3044C20.1965 44.8168 32.4874 44.0201 32.7785 40.2329C32.7785 40.2329 32.219 41.6687 26.1637 42.8089C19.3322 44.0944 10.9066 43.9443 5.90918 43.1204C5.90931 43.1204 6.93221 43.9671 12.1927 44.3044" fill="#003077"/>
</svg>