<svg width="45" height="45" viewBox="0 0 45 45" fill="none" xmlns="http://www.w3.org/2000/svg">
<path d="M44.4444 0H0V44.4444H44.4444V0Z" fill="#F7DF1E"/>
<path d="M29.8552 34.7222C30.7505 36.184 31.9152 37.2584 33.9752 37.2584C35.7057 37.2584 36.8111 36.3935 36.8111 35.1984C36.8111 33.7663 35.6753 33.2591 33.7706 32.426L32.7265 31.978C29.7127 30.694 27.7106 29.0856 27.7106 25.6852C27.7106 22.5529 30.0972 20.1685 33.827 20.1685C36.4824 20.1685 38.3914 21.0926 39.7671 23.5124L36.5148 25.6006C35.7988 24.3166 35.0263 23.8108 33.827 23.8108C32.6037 23.8108 31.8284 24.5868 31.8284 25.6006C31.8284 26.8535 32.6044 27.3607 34.3963 28.1367L35.4404 28.584C38.9889 30.1057 40.9925 31.657 40.9925 35.1448C40.9925 38.905 38.0387 40.9649 34.0718 40.9649C30.1932 40.9649 27.6873 39.1166 26.4612 36.694L29.8552 34.7222ZM15.1018 35.0842C15.7579 36.2482 16.3547 37.2323 17.7896 37.2323C19.1618 37.2323 20.0274 36.6954 20.0274 34.608V20.4069H24.2037V34.6644C24.2037 38.9889 21.6683 40.9572 17.9674 40.9572C14.6235 40.9572 12.687 39.2267 11.7021 37.1424L15.1018 35.0842Z" fill="black"/>
</svg>