<svg fill="none" height="16" viewBox="0 0 20 16" width="20" xmlns="http://www.w3.org/2000/svg"><path d="m18.4042 1.88042 1.5958-1.542736v-.337684h-5.5283l-3.94 9.90989-4.48253-9.90989h-5.79667v.337684l1.86417 2.267786c.18166.16758.27666.41264.2525.65937v8.91196c.0575.3209-.04584.651-.26917.8843l-2.1 2.5717v.3335h5.95417v-.3377l-2.1-2.5675c-.2275-.2342-.335-.5584-.28917-.8843v-7.70859l5.22667 11.50229h.6075l4.49413-11.50229v9.16299c0 .2416 0 .2913-.1566.4496l-1.6167 1.5807v.3385h7.8433v-.3377l-1.5583-1.5419c-.1367-.1044-.2075-.2796-.1783-.4497v-11.34059c-.0292-.17095.0408-.34611.1775-.44969z" fill="#fffefd"/></svg>