<svg width="60" height="31" viewBox="0 0 60 31" fill="none" xmlns="http://www.w3.org/2000/svg">
<path fill-rule="evenodd" clip-rule="evenodd" d="M59.5175 15.0741C59.5175 23.3991 46.2001 30.1482 29.7722 30.1482C13.3446 30.1482 0.0268555 23.3991 0.0268555 15.0741C0.0268555 6.74916 13.3446 0 29.7722 0C46.2001 0 59.5175 6.74916 59.5175 15.0741ZM19.5017 11.1971C19.0517 10.6986 18.1514 10.4493 16.8012 10.4493H14.3654L13.0381 17.2787H15.2006C16.6336 17.2787 17.7011 17.0089 18.4025 16.4687C19.1039 15.9284 19.5772 15.0271 19.8233 13.7642C20.0585 12.5517 19.9513 11.6957 19.5017 11.1971ZM11.6947 24.1922H8.14028L11.312 7.87436H18.1475C20.2038 7.87436 21.7041 8.41389 22.6468 9.4933C23.5899 10.5724 23.8737 12.0791 23.4975 14.0135C23.3424 14.8102 23.0806 15.5385 22.7119 16.1989C22.3429 16.8593 21.8609 17.4636 21.2653 18.0107C20.5556 18.675 19.7668 19.148 18.8992 19.4303C18.0317 19.7127 16.9264 19.854 15.5829 19.854H12.5382L11.6947 24.1922ZM29.6348 3.53583H26.1081L22.9364 19.854H26.4631L28.2799 10.5051H31.0984C32.0005 10.5051 32.5907 10.6547 32.868 10.9533C33.1454 11.2522 33.2036 11.8122 33.0443 12.6337L31.6415 19.854H35.2243L36.6998 12.2604C36.9998 10.7155 36.7749 9.59797 36.0246 8.90845C35.2743 8.21894 33.91 7.87436 31.9339 7.87436H28.7917L29.6348 3.53583ZM47.2472 11.1971C46.7969 10.6986 45.897 10.4493 44.5467 10.4493H42.1113L40.7844 17.2787H42.9468C44.3791 17.2787 45.447 17.0089 46.148 16.4687C46.8498 15.9284 47.3231 15.0271 47.5684 13.7642C47.8037 12.5517 47.6968 11.6957 47.2472 11.1971ZM39.4399 24.1922H35.8851L39.0572 7.87436H45.8927C47.949 7.87436 49.4489 8.41389 50.3923 9.4933C51.3351 10.5724 51.6189 12.0791 51.243 14.0135C51.0876 14.8102 50.8254 15.5385 50.4567 16.1989C50.088 16.8593 49.6061 17.4636 49.0104 18.0107C48.3008 18.675 47.512 19.148 46.6444 19.4303C45.7768 19.7127 44.6715 19.854 43.3277 19.854H40.283L39.4399 24.1922Z" fill="#4F5B93"/>
</svg>