<svg width="45" height="48" viewBox="0 0 45 48" fill="none" xmlns="http://www.w3.org/2000/svg">
<path d="M22.1361 27.6584C24.3001 27.6584 26.0544 25.9041 26.0544 23.7401C26.0544 21.5761 24.3001 19.8218 22.1361 19.8218C19.9721 19.8218 18.2178 21.5761 18.2178 23.7401C18.2178 25.9041 19.9721 27.6584 22.1361 27.6584Z" fill="#00BFE3"/>
<path fill-rule="evenodd" clip-rule="evenodd" d="M3.50791 21.44C2.58134 22.2764 2.22222 23.0555 2.22222 23.74C2.22222 24.4244 2.58134 25.2036 3.50791 26.04C4.43436 26.8763 5.83734 27.6804 7.66558 28.3785C11.3144 29.7716 16.4303 30.6567 22.1363 30.6567C27.8423 30.6567 32.9582 29.7716 36.607 28.3785C38.4352 27.6804 39.8382 26.8763 40.7647 26.04C41.6912 25.2036 42.0503 24.4244 42.0503 23.74C42.0503 23.0555 41.6912 22.2764 40.7647 21.44C39.8382 20.6036 38.4352 19.7995 36.607 19.1015C32.9582 17.7083 27.8423 16.8233 22.1363 16.8233C16.4303 16.8233 11.3144 17.7083 7.66558 19.1015C5.83734 19.7995 4.43436 20.6036 3.50791 21.44ZM6.87291 17.0254C10.8337 15.5131 16.2304 14.6011 22.1363 14.6011C28.0421 14.6011 33.4389 15.5131 37.3997 17.0254C39.3762 17.7801 41.0523 18.7059 42.2537 19.7904C43.455 20.8749 44.2726 22.2076 44.2726 23.74C44.2726 25.2723 43.455 26.6051 42.2537 27.6895C41.0523 28.7741 39.3762 29.6998 37.3997 30.4545C33.4389 31.9668 28.0421 32.8789 22.1363 32.8789C16.2304 32.8789 10.8337 31.9668 6.87291 30.4545C4.89633 29.6998 3.22025 28.7741 2.01884 27.6895C0.817548 26.6051 0 25.2723 0 23.74C0 22.2076 0.817548 20.8749 2.01884 19.7904C3.22025 18.7059 4.89633 17.7801 6.87291 17.0254Z" fill="#00BFE3"/>
<path fill-rule="evenodd" clip-rule="evenodd" d="M14.8137 6.45738C13.6261 6.07316 12.7718 6.15171 12.179 6.49395C11.5862 6.83619 11.0911 7.53674 10.83 8.75739C10.5689 9.97788 10.5741 11.595 10.8836 13.5273C11.5015 17.3838 13.293 22.2568 16.146 27.1984C18.999 32.1399 22.3234 36.1279 25.3543 38.5913C26.873 39.8255 28.2709 40.6385 29.4584 41.0227C30.646 41.4069 31.5003 41.3283 32.0931 40.9861C32.6858 40.6439 33.181 39.9433 33.4421 38.7227C33.7031 37.5022 33.698 35.8851 33.3884 33.9528C32.7706 30.0962 30.9791 25.2233 28.1261 20.2817C25.273 15.3401 21.9487 11.3522 18.9177 8.88879C17.3991 7.65452 16.0012 6.84155 14.8137 6.45738ZM20.3193 7.1643C23.6094 9.83829 27.0976 14.056 30.0506 19.1706C33.0035 24.2852 34.912 29.4149 35.5827 33.6012C35.9174 35.6903 35.9537 37.6047 35.6152 39.1875C35.2767 40.77 34.5312 42.1444 33.2042 42.9106C31.8771 43.6768 30.3141 43.6351 28.7744 43.137C27.2344 42.6388 25.5946 41.6502 23.9528 40.3158C20.6627 37.6418 17.1744 33.4241 14.2215 28.3095C11.2686 23.1949 9.36011 18.0651 8.68941 13.8788C8.3547 11.7897 8.31839 9.87531 8.65692 8.29259C8.99541 6.71002 9.74086 5.33562 11.0679 4.56945C12.3949 3.80328 13.9579 3.84491 15.4977 4.34305C17.0377 4.84123 18.6774 5.82988 20.3193 7.1643Z" fill="#00BFE3"/>
<path fill-rule="evenodd" clip-rule="evenodd" d="M33.442 8.75716C33.181 7.53651 32.6858 6.83596 32.093 6.49372C31.5002 6.15149 30.646 6.07293 29.4583 6.45715C28.2708 6.84132 26.8729 7.65429 25.3543 8.88856C22.3233 11.3519 18.999 15.3399 16.146 20.2815C13.293 25.223 11.5015 30.096 10.8836 33.9526C10.574 35.8849 10.5689 37.5019 10.8299 38.7224C11.091 39.9431 11.5862 40.6436 12.179 40.9859C12.7717 41.3281 13.626 41.4067 14.8137 41.0225C16.0012 40.6383 17.399 39.8253 18.9177 38.591C21.9486 36.1277 25.273 32.1397 28.126 27.1981C30.979 22.2566 32.7705 17.3836 33.3884 13.527C33.698 11.5947 33.7031 9.97765 33.442 8.75716ZM35.5826 13.8786C34.9119 18.0649 33.0034 23.1946 30.0505 28.3093C27.0976 33.4239 23.6093 37.6415 20.3193 40.3155C18.6774 41.6499 17.0376 42.6386 15.4977 43.1368C13.9579 43.6349 12.3949 43.6765 11.0679 42.9104C9.74081 42.1442 8.99537 40.7698 8.65687 39.1872C8.31834 37.6045 8.35465 35.6901 8.68936 33.601C9.36006 29.4147 11.2685 24.285 14.2215 19.1703C17.1744 14.0557 20.6626 9.83806 23.9527 7.16407C25.5946 5.82965 27.2344 4.841 28.7743 4.34282C30.3141 3.84468 31.8771 3.80305 33.2041 4.56922C34.5312 5.33539 35.2766 6.7098 35.6151 8.29236C35.9536 9.87508 35.9173 11.7895 35.5826 13.8786Z" fill="#00BFE3"/>
</svg>