<svg width="46" height="46" viewBox="0 0 46 46" fill="none" xmlns="http://www.w3.org/2000/svg">
<path d="M4.05958 22.8198C4.05958 30.3659 8.44479 36.8866 14.8037 39.9772L5.71006 15.0614C4.61994 17.5025 4.05751 20.1463 4.05958 22.8198V22.8198ZM35.9927 21.8578C35.9927 19.5018 35.1464 17.8701 34.4205 16.6002C33.4542 15.0298 32.5488 13.7 32.5488 12.1297C32.5488 10.3773 33.8775 8.74602 35.7496 8.74602C35.8342 8.74602 35.9143 8.75654 35.997 8.76126C32.605 5.65399 28.0863 3.75684 23.1232 3.75684C16.4633 3.75684 10.6038 7.17389 7.19514 12.3495C7.6424 12.3629 8.06427 12.372 8.42194 12.372C10.4159 12.372 13.5025 12.1301 13.5025 12.1301C14.5302 12.0695 14.6513 13.5789 13.6251 13.7004C13.6251 13.7004 12.592 13.8219 11.4429 13.8821L18.3851 34.5313L22.5574 22.0192L19.5868 13.8818C18.5603 13.8215 17.5878 13.7 17.5878 13.7C16.5605 13.6398 16.6809 12.0691 17.7082 12.1297C17.7082 12.1297 20.8564 12.3717 22.7297 12.3717C24.7233 12.3717 27.8103 12.1297 27.8103 12.1297C28.8386 12.0691 28.9594 13.5785 27.9325 13.7C27.9325 13.7 26.8976 13.8215 25.7506 13.8818L32.6398 34.3746L34.541 28.0204C35.3655 25.3837 35.9927 23.4898 35.9927 21.8578V21.8578Z" fill="#21759B"/>
<path d="M23.458 24.4871L17.7383 41.1073C19.487 41.6227 21.3006 41.8843 23.1236 41.8843C25.3436 41.8843 27.4725 41.5002 29.4542 40.8037C29.4011 40.7205 29.3556 40.6326 29.3185 40.5411L23.458 24.4871ZM39.8512 13.6733C39.9332 14.2806 39.9796 14.9328 39.9796 15.6336C39.9796 17.5681 39.6183 19.7428 38.5301 22.4619L32.7069 39.2979C38.3745 35.993 42.1866 29.8528 42.1866 22.8196C42.1916 19.6227 41.3883 16.4764 39.8512 13.6733V13.6733Z" fill="#21759B"/>
<path d="M23.1234 0.597656C10.8702 0.597656 0.900879 10.5662 0.900879 22.8194C0.900879 35.074 10.8698 45.0425 23.1234 45.0425C35.3762 45.0425 45.3469 35.0743 45.3469 22.8194C45.3466 10.5662 35.3762 0.597656 23.1234 0.597656ZM23.1234 44.0236C11.4321 44.0236 1.91983 34.5113 1.91983 22.8194C1.91983 11.1285 11.4317 1.61697 23.1234 1.61697C34.8143 1.61697 44.3258 11.1285 44.3258 22.8194C44.3258 34.5113 34.8139 44.0236 23.1234 44.0236Z" fill="#21759B"/>
</svg>